<svg xmlns="http://www.w3.org/2000/svg" xmlns:xlink="http://www.w3.org/1999/xlink" width="500" zoomAndPan="magnify" viewBox="0 0 375 374.999991" height="500" preserveAspectRatio="xMidYMid meet" version="1.0"><defs><g/><clipPath id="a83f827136"><rect x="0" width="155" y="0" height="71"/></clipPath><clipPath id="1190b03c0c"><rect x="0" width="146" y="0" height="32"/></clipPath><clipPath id="1c8fdf9563"><path d="M 113.996094 142.550781 L 123.6875 142.550781 L 123.6875 152.246094 L 113.996094 152.246094 Z M 113.996094 142.550781 " clip-rule="nonzero"/></clipPath><clipPath id="886d5030ac"><path d="M 123.6875 147.398438 C 123.6875 144.722656 121.519531 142.550781 118.84375 142.550781 C 116.164062 142.550781 113.996094 144.722656 113.996094 147.398438 C 113.996094 150.074219 116.164062 152.246094 118.84375 152.246094 C 121.519531 152.246094 123.6875 150.074219 123.6875 147.398438 Z M 123.6875 147.398438 " clip-rule="nonzero"/></clipPath><clipPath id="d846a0a2fb"><path d="M 0.996094 0.550781 L 10.6875 0.550781 L 10.6875 10.246094 L 0.996094 10.246094 Z M 0.996094 0.550781 " clip-rule="nonzero"/></clipPath><clipPath id="ab98586593"><path d="M 10.6875 5.398438 C 10.6875 2.722656 8.519531 0.550781 5.84375 0.550781 C 3.164062 0.550781 0.996094 2.722656 0.996094 5.398438 C 0.996094 8.074219 3.164062 10.246094 5.84375 10.246094 C 8.519531 10.246094 10.6875 8.074219 10.6875 5.398438 Z M 10.6875 5.398438 " clip-rule="nonzero"/></clipPath><clipPath id="254fe5e45c"><rect x="0" width="11" y="0" height="11"/></clipPath><clipPath id="9abd5d56ac"><path d="M 113.996094 142.550781 L 123.6875 142.550781 L 123.6875 152.242188 L 113.996094 152.242188 Z M 113.996094 142.550781 " clip-rule="nonzero"/></clipPath><clipPath id="c4b738538a"><path d="M 123.6875 147.398438 C 123.6875 144.722656 121.519531 142.550781 118.84375 142.550781 C 116.167969 142.550781 113.996094 144.722656 113.996094 147.398438 C 113.996094 150.074219 116.167969 152.242188 118.84375 152.242188 C 121.519531 152.242188 123.6875 150.074219 123.6875 147.398438 Z M 123.6875 147.398438 " clip-rule="nonzero"/></clipPath><clipPath id="50ba139ca7"><path d="M 88.304688 212.863281 L 98 212.863281 L 98 222.558594 L 88.304688 222.558594 Z M 88.304688 212.863281 " clip-rule="nonzero"/></clipPath><clipPath id="d03d9de2f4"><path d="M 88.304688 217.710938 C 88.304688 220.390625 90.476562 222.558594 93.152344 222.558594 C 95.828125 222.558594 98 220.390625 98 217.710938 C 98 215.035156 95.828125 212.863281 93.152344 212.863281 C 90.476562 212.863281 88.304688 215.035156 88.304688 217.710938 Z M 88.304688 217.710938 " clip-rule="nonzero"/></clipPath><clipPath id="1f4da84d11"><path d="M 0.304688 0.863281 L 10 0.863281 L 10 10.558594 L 0.304688 10.558594 Z M 0.304688 0.863281 " clip-rule="nonzero"/></clipPath><clipPath id="9637fb8dcd"><path d="M 0.304688 5.710938 C 0.304688 8.390625 2.476562 10.558594 5.152344 10.558594 C 7.828125 10.558594 10 8.390625 10 5.710938 C 10 3.035156 7.828125 0.863281 5.152344 0.863281 C 2.476562 0.863281 0.304688 3.035156 0.304688 5.710938 Z M 0.304688 5.710938 " clip-rule="nonzero"/></clipPath><clipPath id="c96530df41"><rect x="0" width="10" y="0" height="11"/></clipPath><clipPath id="d5d7401661"><path d="M 88.304688 212.867188 L 97.996094 212.867188 L 97.996094 222.558594 L 88.304688 222.558594 Z M 88.304688 212.867188 " clip-rule="nonzero"/></clipPath><clipPath id="c053343dea"><path d="M 88.304688 217.714844 C 88.304688 220.390625 90.476562 222.558594 93.152344 222.558594 C 95.828125 222.558594 97.996094 220.390625 97.996094 217.714844 C 97.996094 215.035156 95.828125 212.867188 93.152344 212.867188 C 90.476562 212.867188 88.304688 215.035156 88.304688 217.714844 Z M 88.304688 217.714844 " clip-rule="nonzero"/></clipPath><clipPath id="863b5fe057"><path d="M 93.144531 168.722656 L 120.410156 168.722656 L 120.410156 195.984375 L 93.144531 195.984375 Z M 93.144531 168.722656 " clip-rule="nonzero"/></clipPath><clipPath id="49e166cb15"><path d="M 106.777344 195.984375 C 114.304688 195.984375 120.410156 189.882812 120.410156 182.351562 C 120.410156 174.824219 114.304688 168.722656 106.777344 168.722656 C 99.25 168.722656 93.144531 174.824219 93.144531 182.351562 C 93.144531 189.882812 99.25 195.984375 106.777344 195.984375 Z M 106.777344 195.984375 " clip-rule="nonzero"/></clipPath><clipPath id="d8c31a9371"><path d="M 0.144531 0.722656 L 27.410156 0.722656 L 27.410156 27.984375 L 0.144531 27.984375 Z M 0.144531 0.722656 " clip-rule="nonzero"/></clipPath><clipPath id="b6ee7c6c73"><path d="M 13.777344 27.984375 C 21.304688 27.984375 27.410156 21.882812 27.410156 14.351562 C 27.410156 6.824219 21.304688 0.722656 13.777344 0.722656 C 6.25 0.722656 0.144531 6.824219 0.144531 14.351562 C 0.144531 21.882812 6.25 27.984375 13.777344 27.984375 Z M 13.777344 27.984375 " clip-rule="nonzero"/></clipPath><clipPath id="2f2175c5f4"><rect x="0" width="28" y="0" height="28"/></clipPath><clipPath id="9679d3f7d8"><path d="M 93.410156 168.984375 L 120.410156 168.984375 L 120.410156 195.984375 L 93.410156 195.984375 Z M 93.410156 168.984375 " clip-rule="nonzero"/></clipPath><clipPath id="82b618e63c"><path d="M 106.78125 195.984375 C 114.308594 195.984375 120.410156 189.882812 120.410156 182.355469 C 120.410156 174.828125 114.308594 168.726562 106.78125 168.726562 C 99.253906 168.726562 93.152344 174.828125 93.152344 182.355469 C 93.152344 189.882812 99.253906 195.984375 106.78125 195.984375 Z M 106.78125 195.984375 " clip-rule="nonzero"/></clipPath><clipPath id="561c07e7ca"><path d="M 123.6875 156.003906 L 133.382812 156.003906 L 133.382812 165.699219 L 123.6875 165.699219 Z M 123.6875 156.003906 " clip-rule="nonzero"/></clipPath><clipPath id="291ffce370"><path d="M 133.382812 160.851562 C 133.382812 158.175781 131.210938 156.003906 128.535156 156.003906 C 125.859375 156.003906 123.6875 158.175781 123.6875 160.851562 C 123.6875 163.527344 125.859375 165.699219 128.535156 165.699219 C 131.210938 165.699219 133.382812 163.527344 133.382812 160.851562 Z M 133.382812 160.851562 " clip-rule="nonzero"/></clipPath><clipPath id="9f3a428667"><path d="M 0.6875 0.00390625 L 10.382812 0.00390625 L 10.382812 9.699219 L 0.6875 9.699219 Z M 0.6875 0.00390625 " clip-rule="nonzero"/></clipPath><clipPath id="89dc79ceac"><path d="M 10.382812 4.851562 C 10.382812 2.175781 8.210938 0.00390625 5.535156 0.00390625 C 2.859375 0.00390625 0.6875 2.175781 0.6875 4.851562 C 0.6875 7.527344 2.859375 9.699219 5.535156 9.699219 C 8.210938 9.699219 10.382812 7.527344 10.382812 4.851562 Z M 10.382812 4.851562 " clip-rule="nonzero"/></clipPath><clipPath id="e204b1f037"><rect x="0" width="11" y="0" height="10"/></clipPath><clipPath id="a28c88137d"><path d="M 123.691406 156.003906 L 133.382812 156.003906 L 133.382812 165.695312 L 123.691406 165.695312 Z M 123.691406 156.003906 " clip-rule="nonzero"/></clipPath><clipPath id="f1d5d1dd48"><path d="M 133.382812 160.851562 C 133.382812 158.175781 131.214844 156.003906 128.535156 156.003906 C 125.859375 156.003906 123.691406 158.175781 123.691406 160.851562 C 123.691406 163.527344 125.859375 165.695312 128.535156 165.695312 C 131.214844 165.695312 133.382812 163.527344 133.382812 160.851562 Z M 133.382812 160.851562 " clip-rule="nonzero"/></clipPath><clipPath id="b288d0d37c"><path d="M 80.035156 199.828125 L 89.730469 199.828125 L 89.730469 209.523438 L 80.035156 209.523438 Z M 80.035156 199.828125 " clip-rule="nonzero"/></clipPath><clipPath id="74a902c3fd"><path d="M 89.730469 204.675781 C 89.730469 202 87.558594 199.828125 84.882812 199.828125 C 82.207031 199.828125 80.035156 202 80.035156 204.675781 C 80.035156 207.351562 82.207031 209.523438 84.882812 209.523438 C 87.558594 209.523438 89.730469 207.351562 89.730469 204.675781 Z M 89.730469 204.675781 " clip-rule="nonzero"/></clipPath><clipPath id="6180e0b8f3"><path d="M 0.0351562 0.828125 L 9.730469 0.828125 L 9.730469 10.523438 L 0.0351562 10.523438 Z M 0.0351562 0.828125 " clip-rule="nonzero"/></clipPath><clipPath id="4bc33716d4"><path d="M 9.730469 5.675781 C 9.730469 3 7.558594 0.828125 4.882812 0.828125 C 2.207031 0.828125 0.0351562 3 0.0351562 5.675781 C 0.0351562 8.351562 2.207031 10.523438 4.882812 10.523438 C 7.558594 10.523438 9.730469 8.351562 9.730469 5.675781 Z M 9.730469 5.675781 " clip-rule="nonzero"/></clipPath><clipPath id="75fd68919a"><rect x="0" width="10" y="0" height="11"/></clipPath><clipPath id="a140f58a41"><path d="M 80.039062 199.828125 L 89.730469 199.828125 L 89.730469 209.519531 L 80.039062 209.519531 Z M 80.039062 199.828125 " clip-rule="nonzero"/></clipPath><clipPath id="a7695e6f01"><path d="M 89.730469 204.675781 C 89.730469 201.996094 87.558594 199.828125 84.882812 199.828125 C 82.207031 199.828125 80.039062 201.996094 80.039062 204.675781 C 80.039062 207.351562 82.207031 209.519531 84.882812 209.519531 C 87.558594 209.519531 89.730469 207.351562 89.730469 204.675781 Z M 89.730469 204.675781 " clip-rule="nonzero"/></clipPath><clipPath id="0e89282e24"><path d="M 120.414062 208.609375 L 130.105469 208.609375 L 130.105469 218.304688 L 120.414062 218.304688 Z M 120.414062 208.609375 " clip-rule="nonzero"/></clipPath><clipPath id="ca99304c2a"><path d="M 130.105469 213.457031 C 130.105469 210.78125 127.9375 208.609375 125.261719 208.609375 C 122.582031 208.609375 120.414062 210.78125 120.414062 213.457031 C 120.414062 216.132812 122.582031 218.304688 125.261719 218.304688 C 127.9375 218.304688 130.105469 216.132812 130.105469 213.457031 Z M 130.105469 213.457031 " clip-rule="nonzero"/></clipPath><clipPath id="6cff4cf8ba"><path d="M 0.414062 0.609375 L 10.105469 0.609375 L 10.105469 10.304688 L 0.414062 10.304688 Z M 0.414062 0.609375 " clip-rule="nonzero"/></clipPath><clipPath id="8104d1d1f1"><path d="M 10.105469 5.457031 C 10.105469 2.78125 7.9375 0.609375 5.261719 0.609375 C 2.582031 0.609375 0.414062 2.78125 0.414062 5.457031 C 0.414062 8.132812 2.582031 10.304688 5.261719 10.304688 C 7.9375 10.304688 10.105469 8.132812 10.105469 5.457031 Z M 10.105469 5.457031 " clip-rule="nonzero"/></clipPath><clipPath id="828a2ceef8"><rect x="0" width="11" y="0" height="11"/></clipPath><clipPath id="c5661f65de"><path d="M 120.414062 208.609375 L 130.105469 208.609375 L 130.105469 218.300781 L 120.414062 218.300781 Z M 120.414062 208.609375 " clip-rule="nonzero"/></clipPath><clipPath id="833661080a"><path d="M 130.105469 213.457031 C 130.105469 210.78125 127.9375 208.609375 125.261719 208.609375 C 122.585938 208.609375 120.414062 210.78125 120.414062 213.457031 C 120.414062 216.132812 122.585938 218.300781 125.261719 218.300781 C 127.9375 218.300781 130.105469 216.132812 130.105469 213.457031 Z M 130.105469 213.457031 " clip-rule="nonzero"/></clipPath></defs><rect x="-37.5" width="450" fill="#ffffff" y="-37.499999" height="449.999989" fill-opacity="1"/><rect x="-37.5" width="450" fill="#ffffff" y="-37.499999" height="449.999989" fill-opacity="1"/><g transform="matrix(1, 0, 0, 1, 136, 149)"><g clip-path="url(#a83f827136)"><g fill="#1ecad3" fill-opacity="1"><g transform="translate(2.113067, 48.977335)"><g><path d="M 20.265625 -46.765625 C 22.753906 -46.765625 25.1875 -46.398438 27.5625 -45.671875 C 29.9375 -44.953125 31.695312 -44.238281 32.84375 -43.53125 L 34.515625 -42.421875 L 30.28125 -34.078125 C 29.945312 -34.296875 29.484375 -34.582031 28.890625 -34.9375 C 28.296875 -35.289062 27.179688 -35.765625 25.546875 -36.359375 C 23.921875 -36.953125 22.398438 -37.25 20.984375 -37.25 C 19.242188 -37.25 17.898438 -36.875 16.953125 -36.125 C 16.003906 -35.382812 15.53125 -34.382812 15.53125 -33.125 C 15.53125 -32.488281 15.753906 -31.898438 16.203125 -31.359375 C 16.648438 -30.828125 17.410156 -30.253906 18.484375 -29.640625 C 19.554688 -29.035156 20.5 -28.546875 21.3125 -28.171875 C 22.132812 -27.796875 23.398438 -27.238281 25.109375 -26.5 C 28.078125 -25.238281 30.609375 -23.519531 32.703125 -21.34375 C 34.804688 -19.175781 35.859375 -16.71875 35.859375 -13.96875 C 35.859375 -11.332031 35.382812 -9.03125 34.4375 -7.0625 C 33.488281 -5.101562 32.1875 -3.566406 30.53125 -2.453125 C 28.882812 -1.335938 27.054688 -0.515625 25.046875 0.015625 C 23.046875 0.554688 20.875 0.828125 18.53125 0.828125 C 16.53125 0.828125 14.566406 0.625 12.640625 0.21875 C 10.710938 -0.1875 9.097656 -0.695312 7.796875 -1.3125 C 6.492188 -1.925781 5.320312 -2.53125 4.28125 -3.125 C 3.25 -3.71875 2.488281 -4.21875 2 -4.625 L 1.28125 -5.234375 L 6.515625 -14.03125 C 6.960938 -13.65625 7.570312 -13.179688 8.34375 -12.609375 C 9.125 -12.035156 10.507812 -11.265625 12.5 -10.296875 C 14.488281 -9.335938 16.242188 -8.859375 17.765625 -8.859375 C 22.179688 -8.859375 24.390625 -10.359375 24.390625 -13.359375 C 24.390625 -13.992188 24.226562 -14.578125 23.90625 -15.109375 C 23.59375 -15.648438 23.035156 -16.1875 22.234375 -16.71875 C 21.441406 -17.257812 20.738281 -17.6875 20.125 -18 C 19.507812 -18.320312 18.503906 -18.804688 17.109375 -19.453125 C 15.722656 -20.109375 14.695312 -20.601562 14.03125 -20.9375 C 11.25 -22.3125 9.09375 -24.023438 7.5625 -26.078125 C 6.039062 -28.140625 5.28125 -30.359375 5.28125 -32.734375 C 5.28125 -36.859375 6.800781 -40.226562 9.84375 -42.84375 C 12.894531 -45.457031 16.367188 -46.765625 20.265625 -46.765625 Z M 20.265625 -46.765625 "/></g></g></g><g fill="#1ecad3" fill-opacity="1"><g transform="translate(34.267099, 48.977335)"><g><path d="M 38.640625 -45.921875 L 38.640625 -16.3125 C 38.640625 -10.664062 37.113281 -6.394531 34.0625 -3.5 C 31.019531 -0.613281 26.566406 0.828125 20.703125 0.828125 C 14.835938 0.828125 10.382812 -0.613281 7.34375 -3.5 C 4.300781 -6.394531 2.78125 -10.664062 2.78125 -16.3125 L 2.78125 -45.921875 L 13.25 -45.921875 L 13.25 -19.375 C 13.25 -15.664062 13.832031 -13.085938 15 -11.640625 C 16.164062 -10.191406 18.066406 -9.46875 20.703125 -9.46875 C 23.335938 -9.46875 25.238281 -10.191406 26.40625 -11.640625 C 27.582031 -13.085938 28.171875 -15.664062 28.171875 -19.375 L 28.171875 -45.921875 Z M 38.640625 -45.921875 "/></g></g></g><g fill="#1ecad3" fill-opacity="1"><g transform="translate(70.427085, 48.977335)"><g><path d="M 3.34375 -45.921875 L 19.765625 -45.921875 C 24.179688 -45.921875 27.78125 -44.742188 30.5625 -42.390625 C 33.34375 -40.035156 34.734375 -36.671875 34.734375 -32.296875 C 34.734375 -28.910156 33.890625 -26.078125 32.203125 -23.796875 C 30.515625 -21.515625 28.222656 -19.910156 25.328125 -18.984375 L 41.140625 0 L 27.84375 0 L 13.8125 -18.15625 L 13.8125 0 L 3.34375 0 Z M 13.8125 -25.546875 L 15.03125 -25.546875 C 16 -25.546875 16.816406 -25.566406 17.484375 -25.609375 C 18.148438 -25.648438 18.910156 -25.78125 19.765625 -26 C 20.617188 -26.21875 21.304688 -26.53125 21.828125 -26.9375 C 22.347656 -27.351562 22.789062 -27.945312 23.15625 -28.71875 C 23.53125 -29.5 23.71875 -30.445312 23.71875 -31.5625 C 23.71875 -32.675781 23.53125 -33.625 23.15625 -34.40625 C 22.789062 -35.1875 22.347656 -35.78125 21.828125 -36.1875 C 21.304688 -36.59375 20.617188 -36.90625 19.765625 -37.125 C 18.910156 -37.351562 18.148438 -37.484375 17.484375 -37.515625 C 16.816406 -37.554688 16 -37.578125 15.03125 -37.578125 L 13.8125 -37.578125 Z M 13.8125 -25.546875 "/></g></g></g><g fill="#1ecad3" fill-opacity="1"><g transform="translate(105.029197, 48.977335)"><g><path d="M 44.875 -25.71875 L 44.875 -15.75 C 43.6875 -10.300781 41.085938 -6.175781 37.078125 -3.375 C 33.066406 -0.570312 28.59375 0.828125 23.65625 0.828125 C 17.457031 0.828125 12.175781 -1.488281 7.8125 -6.125 C 3.457031 -10.757812 1.28125 -16.363281 1.28125 -22.9375 C 1.28125 -29.613281 3.410156 -35.253906 7.671875 -39.859375 C 11.941406 -44.460938 17.269531 -46.765625 23.65625 -46.765625 C 31.113281 -46.765625 37.015625 -44.148438 41.359375 -38.921875 L 34.515625 -31.40625 C 32.066406 -35.332031 28.648438 -37.296875 24.265625 -37.296875 C 21.035156 -37.296875 18.28125 -35.894531 16 -33.09375 C 13.71875 -30.289062 12.578125 -26.90625 12.578125 -22.9375 C 12.578125 -19.039062 13.71875 -15.707031 16 -12.9375 C 18.28125 -10.175781 21.035156 -8.796875 24.265625 -8.796875 C 26.941406 -8.796875 29.269531 -9.601562 31.25 -11.21875 C 33.238281 -12.832031 34.234375 -14.972656 34.234375 -17.640625 L 23.65625 -17.640625 L 23.65625 -25.71875 Z M 44.875 -25.71875 "/></g></g></g></g></g><g transform="matrix(1, 0, 0, 1, 141, 200)"><g clip-path="url(#1190b03c0c)"><g fill="#0b1f3b" fill-opacity="1"><g transform="translate(1.560045, 22.164514)"><g><path d="M 6.9375 -15.296875 C 7.945312 -15.296875 8.773438 -15.195312 9.421875 -15 C 10.066406 -14.800781 10.578125 -14.613281 10.953125 -14.4375 C 11.222656 -14.320312 11.425781 -14.234375 11.5625 -14.171875 C 11.695312 -14.117188 11.8125 -14.09375 11.90625 -14.09375 C 12.0625 -14.09375 12.1875 -14.117188 12.28125 -14.171875 C 12.375 -14.234375 12.472656 -14.320312 12.578125 -14.4375 L 12.796875 -14.328125 L 10.671875 -10.765625 L 10.265625 -10.9375 C 10.265625 -10.96875 10.269531 -11.035156 10.28125 -11.140625 C 10.289062 -11.253906 10.296875 -11.347656 10.296875 -11.421875 C 10.296875 -11.585938 10.203125 -11.78125 10.015625 -12 C 9.835938 -12.226562 9.566406 -12.425781 9.203125 -12.59375 C 8.816406 -12.789062 8.40625 -12.925781 7.96875 -13 C 7.539062 -13.070312 7.097656 -13.109375 6.640625 -13.109375 C 5.890625 -13.109375 5.316406 -12.953125 4.921875 -12.640625 C 4.535156 -12.328125 4.34375 -11.890625 4.34375 -11.328125 C 4.34375 -10.816406 4.597656 -10.414062 5.109375 -10.125 C 5.628906 -9.832031 6.523438 -9.554688 7.796875 -9.296875 C 8.566406 -9.140625 9.289062 -8.953125 9.96875 -8.734375 C 10.644531 -8.523438 11.242188 -8.25 11.765625 -7.90625 C 12.285156 -7.5625 12.691406 -7.125 12.984375 -6.59375 C 13.285156 -6.070312 13.4375 -5.410156 13.4375 -4.609375 C 13.4375 -3.992188 13.300781 -3.398438 13.03125 -2.828125 C 12.757812 -2.265625 12.347656 -1.757812 11.796875 -1.3125 C 11.253906 -0.863281 10.570312 -0.503906 9.75 -0.234375 C 8.925781 0.0351562 7.96875 0.171875 6.875 0.171875 C 6.070312 0.171875 5.320312 0.0820312 4.625 -0.09375 C 3.9375 -0.28125 3.273438 -0.519531 2.640625 -0.8125 C 2.222656 -1 1.925781 -1.09375 1.75 -1.09375 C 1.65625 -1.09375 1.578125 -1.0625 1.515625 -1 C 1.460938 -0.945312 1.367188 -0.84375 1.234375 -0.6875 L 0.953125 -0.859375 L 2.671875 -4.4375 L 3.078125 -4.25 C 3.054688 -4.195312 3.039062 -4.148438 3.03125 -4.109375 C 3.019531 -4.078125 3.015625 -4.03125 3.015625 -3.96875 C 3.015625 -3.695312 3.144531 -3.460938 3.40625 -3.265625 C 3.664062 -3.078125 3.96875 -2.910156 4.3125 -2.765625 C 4.75 -2.585938 5.203125 -2.457031 5.671875 -2.375 C 6.148438 -2.289062 6.609375 -2.25 7.046875 -2.25 C 8.140625 -2.25 9 -2.414062 9.625 -2.75 C 10.25 -3.082031 10.5625 -3.660156 10.5625 -4.484375 C 10.5625 -5.023438 10.300781 -5.453125 9.78125 -5.765625 C 9.257812 -6.078125 8.347656 -6.367188 7.046875 -6.640625 C 6.335938 -6.796875 5.644531 -6.960938 4.96875 -7.140625 C 4.300781 -7.328125 3.707031 -7.578125 3.1875 -7.890625 C 2.675781 -8.210938 2.257812 -8.613281 1.9375 -9.09375 C 1.625 -9.570312 1.46875 -10.1875 1.46875 -10.9375 C 1.46875 -11.53125 1.578125 -12.085938 1.796875 -12.609375 C 2.015625 -13.140625 2.347656 -13.601562 2.796875 -14 C 3.253906 -14.40625 3.828125 -14.722656 4.515625 -14.953125 C 5.203125 -15.179688 6.007812 -15.296875 6.9375 -15.296875 Z M 6.9375 -15.296875 "/></g></g></g><g fill="#0b1f3b" fill-opacity="1"><g transform="translate(19.070611, 22.164514)"><g><path d="M 7.1875 0.171875 C 6.3125 0.171875 5.5 0.015625 4.75 -0.296875 C 4 -0.617188 3.351562 -1.066406 2.8125 -1.640625 C 2.28125 -2.210938 1.863281 -2.894531 1.5625 -3.6875 C 1.269531 -4.488281 1.125 -5.367188 1.125 -6.328125 C 1.125 -7.265625 1.269531 -8.128906 1.5625 -8.921875 C 1.863281 -9.722656 2.28125 -10.410156 2.8125 -10.984375 C 3.351562 -11.554688 3.992188 -12.003906 4.734375 -12.328125 C 5.472656 -12.660156 6.289062 -12.828125 7.1875 -12.828125 C 8.070312 -12.828125 8.890625 -12.664062 9.640625 -12.34375 C 10.390625 -12.03125 11.03125 -11.585938 11.5625 -11.015625 C 12.101562 -10.441406 12.519531 -9.753906 12.8125 -8.953125 C 13.113281 -8.160156 13.265625 -7.285156 13.265625 -6.328125 C 13.265625 -5.367188 13.113281 -4.488281 12.8125 -3.6875 C 12.519531 -2.894531 12.101562 -2.210938 11.5625 -1.640625 C 11.03125 -1.066406 10.390625 -0.617188 9.640625 -0.296875 C 8.890625 0.015625 8.070312 0.171875 7.1875 0.171875 Z M 3.53125 -6.328125 C 3.53125 -5.660156 3.617188 -5.050781 3.796875 -4.5 C 3.984375 -3.957031 4.234375 -3.488281 4.546875 -3.09375 C 4.867188 -2.695312 5.253906 -2.390625 5.703125 -2.171875 C 6.160156 -1.953125 6.65625 -1.84375 7.1875 -1.84375 C 7.726562 -1.84375 8.222656 -1.953125 8.671875 -2.171875 C 9.117188 -2.390625 9.5 -2.695312 9.8125 -3.09375 C 10.132812 -3.488281 10.382812 -3.957031 10.5625 -4.5 C 10.75 -5.050781 10.84375 -5.660156 10.84375 -6.328125 C 10.84375 -6.984375 10.75 -7.585938 10.5625 -8.140625 C 10.382812 -8.691406 10.132812 -9.164062 9.8125 -9.5625 C 9.5 -9.957031 9.117188 -10.265625 8.671875 -10.484375 C 8.222656 -10.703125 7.726562 -10.8125 7.1875 -10.8125 C 6.113281 -10.8125 5.234375 -10.398438 4.546875 -9.578125 C 3.867188 -8.753906 3.53125 -7.671875 3.53125 -6.328125 Z M 3.53125 -6.328125 "/></g></g></g><g fill="#0b1f3b" fill-opacity="1"><g transform="translate(36.581178, 22.164514)"><g><path d="M 5.265625 -12.65625 L 5.265625 -12.25 C 4.828125 -12.25 4.609375 -12 4.609375 -11.5 L 4.609375 -2.015625 L 9.640625 -2.015625 C 9.847656 -2.015625 10.015625 -2.066406 10.140625 -2.171875 C 10.265625 -2.273438 10.347656 -2.460938 10.390625 -2.734375 L 10.78125 -2.734375 L 10.78125 0.515625 L 10.390625 0.515625 C 10.328125 0.304688 10.234375 0.164062 10.109375 0.09375 C 9.984375 0.03125 9.816406 0 9.609375 0 L 1.328125 0 L 1.328125 -0.40625 C 1.828125 -0.40625 2.078125 -0.65625 2.078125 -1.15625 L 2.078125 -11.5 C 2.078125 -12 1.828125 -12.25 1.328125 -12.25 L 1.328125 -12.65625 Z M 5.265625 -12.65625 "/></g></g></g><g fill="#0b1f3b" fill-opacity="1"><g transform="translate(50.900674, 22.164514)"><g><path d="M 5.03125 -12.65625 L 5.03125 -12.25 C 4.875 -12.25 4.757812 -12.175781 4.6875 -12.03125 C 4.613281 -11.894531 4.578125 -11.71875 4.578125 -11.5 L 4.578125 -4.234375 C 4.578125 -3.535156 4.785156 -2.960938 5.203125 -2.515625 C 5.628906 -2.066406 6.300781 -1.84375 7.21875 -1.84375 C 8.132812 -1.84375 8.800781 -2.066406 9.21875 -2.515625 C 9.644531 -2.960938 9.859375 -3.535156 9.859375 -4.234375 L 9.859375 -11.5 C 9.859375 -12 9.707031 -12.25 9.40625 -12.25 L 9.40625 -12.65625 L 12.859375 -12.65625 L 12.859375 -12.25 C 12.703125 -12.25 12.582031 -12.175781 12.5 -12.03125 C 12.425781 -11.894531 12.390625 -11.71875 12.390625 -11.5 L 12.390625 -4.515625 C 12.390625 -3.015625 11.976562 -1.859375 11.15625 -1.046875 C 10.332031 -0.234375 9.019531 0.171875 7.21875 0.171875 C 5.414062 0.171875 4.101562 -0.234375 3.28125 -1.046875 C 2.457031 -1.859375 2.046875 -3.015625 2.046875 -4.515625 L 2.046875 -11.5 C 2.046875 -12 1.875 -12.25 1.53125 -12.25 L 1.53125 -12.65625 Z M 5.03125 -12.65625 "/></g></g></g><g fill="#0b1f3b" fill-opacity="1"><g transform="translate(68.411241, 22.164514)"><g><path d="M 0.640625 -13.171875 L 1.03125 -13.171875 C 1.144531 -12.828125 1.394531 -12.65625 1.78125 -12.65625 L 9.375 -12.65625 C 9.757812 -12.65625 10.007812 -12.828125 10.125 -13.171875 L 10.53125 -13.171875 L 10.53125 -10.0625 L 10.125 -10.0625 C 10.03125 -10.445312 9.769531 -10.640625 9.34375 -10.640625 L 6.84375 -10.640625 L 6.84375 -1.15625 C 6.84375 -0.925781 6.882812 -0.742188 6.96875 -0.609375 C 7.0625 -0.472656 7.15625 -0.40625 7.25 -0.40625 L 7.25 0 L 3.859375 0 L 3.859375 -0.40625 C 4.160156 -0.40625 4.3125 -0.65625 4.3125 -1.15625 L 4.3125 -10.640625 L 1.78125 -10.640625 C 1.394531 -10.640625 1.144531 -10.46875 1.03125 -10.125 L 0.640625 -10.125 Z M 0.640625 -13.171875 "/></g></g></g><g fill="#0b1f3b" fill-opacity="1"><g transform="translate(82.730737, 22.164514)"><g><path d="M 5.875 -12.65625 L 5.875 -12.25 C 5.46875 -12.25 5.265625 -12 5.265625 -11.5 L 5.265625 -1.125 C 5.265625 -0.644531 5.46875 -0.40625 5.875 -0.40625 L 5.875 0 L 2.125 0 L 2.125 -0.40625 C 2.53125 -0.40625 2.734375 -0.65625 2.734375 -1.15625 L 2.734375 -11.5 C 2.734375 -12 2.53125 -12.25 2.125 -12.25 L 2.125 -12.65625 Z M 5.875 -12.65625 "/></g></g></g><g fill="#0b1f3b" fill-opacity="1"><g transform="translate(93.859129, 22.164514)"><g><path d="M 7.1875 0.171875 C 6.3125 0.171875 5.5 0.015625 4.75 -0.296875 C 4 -0.617188 3.351562 -1.066406 2.8125 -1.640625 C 2.28125 -2.210938 1.863281 -2.894531 1.5625 -3.6875 C 1.269531 -4.488281 1.125 -5.367188 1.125 -6.328125 C 1.125 -7.265625 1.269531 -8.128906 1.5625 -8.921875 C 1.863281 -9.722656 2.28125 -10.410156 2.8125 -10.984375 C 3.351562 -11.554688 3.992188 -12.003906 4.734375 -12.328125 C 5.472656 -12.660156 6.289062 -12.828125 7.1875 -12.828125 C 8.070312 -12.828125 8.890625 -12.664062 9.640625 -12.34375 C 10.390625 -12.03125 11.03125 -11.585938 11.5625 -11.015625 C 12.101562 -10.441406 12.519531 -9.753906 12.8125 -8.953125 C 13.113281 -8.160156 13.265625 -7.285156 13.265625 -6.328125 C 13.265625 -5.367188 13.113281 -4.488281 12.8125 -3.6875 C 12.519531 -2.894531 12.101562 -2.210938 11.5625 -1.640625 C 11.03125 -1.066406 10.390625 -0.617188 9.640625 -0.296875 C 8.890625 0.015625 8.070312 0.171875 7.1875 0.171875 Z M 3.53125 -6.328125 C 3.53125 -5.660156 3.617188 -5.050781 3.796875 -4.5 C 3.984375 -3.957031 4.234375 -3.488281 4.546875 -3.09375 C 4.867188 -2.695312 5.253906 -2.390625 5.703125 -2.171875 C 6.160156 -1.953125 6.65625 -1.84375 7.1875 -1.84375 C 7.726562 -1.84375 8.222656 -1.953125 8.671875 -2.171875 C 9.117188 -2.390625 9.5 -2.695312 9.8125 -3.09375 C 10.132812 -3.488281 10.382812 -3.957031 10.5625 -4.5 C 10.75 -5.050781 10.84375 -5.660156 10.84375 -6.328125 C 10.84375 -6.984375 10.75 -7.585938 10.5625 -8.140625 C 10.382812 -8.691406 10.132812 -9.164062 9.8125 -9.5625 C 9.5 -9.957031 9.117188 -10.265625 8.671875 -10.484375 C 8.222656 -10.703125 7.726562 -10.8125 7.1875 -10.8125 C 6.113281 -10.8125 5.234375 -10.398438 4.546875 -9.578125 C 3.867188 -8.753906 3.53125 -7.671875 3.53125 -6.328125 Z M 3.53125 -6.328125 "/></g></g></g><g fill="#0b1f3b" fill-opacity="1"><g transform="translate(111.369695, 22.164514)"><g><path d="M 5.671875 -12.65625 L 5.671875 -12.25 C 5.535156 -12.21875 5.429688 -12.171875 5.359375 -12.109375 C 5.296875 -12.054688 5.265625 -11.960938 5.265625 -11.828125 C 5.265625 -11.691406 5.34375 -11.5 5.5 -11.25 C 5.664062 -11 5.828125 -10.738281 5.984375 -10.46875 L 10.046875 -4.03125 L 10.09375 -4.03125 L 10.09375 -11.5 C 10.09375 -12 9.898438 -12.25 9.515625 -12.25 L 9.515625 -12.65625 L 12.921875 -12.65625 L 12.921875 -12.25 C 12.535156 -12.25 12.34375 -12 12.34375 -11.5 L 12.34375 -1.125 C 12.34375 -0.644531 12.535156 -0.40625 12.921875 -0.40625 L 12.921875 0 L 9.296875 0 L 9.296875 -0.40625 C 9.390625 -0.425781 9.457031 -0.46875 9.5 -0.53125 C 9.550781 -0.601562 9.578125 -0.664062 9.578125 -0.71875 C 9.578125 -0.789062 9.550781 -0.878906 9.5 -0.984375 C 9.457031 -1.097656 9.359375 -1.269531 9.203125 -1.5 L 4.40625 -8.828125 L 4.34375 -8.828125 L 4.34375 -1.171875 C 4.34375 -0.660156 4.550781 -0.40625 4.96875 -0.40625 L 4.96875 0 L 1.46875 0 L 1.46875 -0.40625 C 1.882812 -0.40625 2.09375 -0.65625 2.09375 -1.15625 L 2.09375 -11.5 C 2.09375 -12 1.882812 -12.25 1.46875 -12.25 L 1.46875 -12.65625 Z M 5.671875 -12.65625 "/></g></g></g><g fill="#0b1f3b" fill-opacity="1"><g transform="translate(128.880262, 22.164514)"><g><path d="M 6.234375 -12.828125 C 6.703125 -12.828125 7.195312 -12.773438 7.71875 -12.671875 C 8.25 -12.566406 8.832031 -12.398438 9.46875 -12.171875 C 10.113281 -11.921875 10.476562 -11.796875 10.5625 -11.796875 C 10.613281 -11.796875 10.664062 -11.804688 10.71875 -11.828125 C 10.78125 -11.859375 10.890625 -11.925781 11.046875 -12.03125 L 11.28125 -11.90625 L 9.78125 -9.09375 L 9.5 -9.203125 C 9.5 -9.703125 9.164062 -10.113281 8.5 -10.4375 C 7.84375 -10.769531 7.015625 -10.9375 6.015625 -10.9375 C 5.203125 -10.9375 4.59375 -10.78125 4.1875 -10.46875 C 3.789062 -10.164062 3.59375 -9.765625 3.59375 -9.265625 C 3.59375 -8.804688 3.816406 -8.453125 4.265625 -8.203125 C 4.722656 -7.953125 5.46875 -7.722656 6.5 -7.515625 C 7.25 -7.359375 7.914062 -7.171875 8.5 -6.953125 C 9.082031 -6.742188 9.570312 -6.484375 9.96875 -6.171875 C 10.363281 -5.859375 10.664062 -5.472656 10.875 -5.015625 C 11.082031 -4.566406 11.1875 -4.023438 11.1875 -3.390625 C 11.1875 -2.878906 11.070312 -2.40625 10.84375 -1.96875 C 10.613281 -1.539062 10.296875 -1.164062 9.890625 -0.84375 C 9.492188 -0.53125 9.007812 -0.28125 8.4375 -0.09375 C 7.875 0.0820312 7.257812 0.171875 6.59375 0.171875 C 5.84375 0.171875 5.191406 0.101562 4.640625 -0.03125 C 4.097656 -0.164062 3.632812 -0.304688 3.25 -0.453125 C 2.863281 -0.609375 2.550781 -0.753906 2.3125 -0.890625 C 2.070312 -1.023438 1.882812 -1.09375 1.75 -1.09375 C 1.65625 -1.09375 1.578125 -1.0625 1.515625 -1 C 1.460938 -0.945312 1.398438 -0.882812 1.328125 -0.8125 L 0.984375 -0.921875 L 2.53125 -4.03125 L 2.9375 -3.796875 C 2.914062 -3.734375 2.890625 -3.671875 2.859375 -3.609375 C 2.828125 -3.546875 2.8125 -3.484375 2.8125 -3.421875 C 2.8125 -3.191406 2.925781 -2.972656 3.15625 -2.765625 C 3.394531 -2.566406 3.691406 -2.390625 4.046875 -2.234375 C 4.398438 -2.085938 4.800781 -1.960938 5.25 -1.859375 C 5.695312 -1.765625 6.144531 -1.71875 6.59375 -1.71875 C 7.445312 -1.71875 8.085938 -1.882812 8.515625 -2.21875 C 8.953125 -2.5625 9.171875 -3.03125 9.171875 -3.625 C 9.171875 -4.0625 8.941406 -4.382812 8.484375 -4.59375 C 8.023438 -4.8125 7.257812 -5.023438 6.1875 -5.234375 C 5.4375 -5.390625 4.773438 -5.566406 4.203125 -5.765625 C 3.628906 -5.960938 3.144531 -6.210938 2.75 -6.515625 C 2.351562 -6.828125 2.054688 -7.191406 1.859375 -7.609375 C 1.671875 -8.035156 1.578125 -8.546875 1.578125 -9.140625 C 1.578125 -10.296875 1.992188 -11.195312 2.828125 -11.84375 C 3.660156 -12.5 4.796875 -12.828125 6.234375 -12.828125 Z M 6.234375 -12.828125 "/></g></g></g></g></g><g clip-path="url(#1c8fdf9563)"><g clip-path="url(#886d5030ac)"><g transform="matrix(1, 0, 0, 1, 113, 142)"><g clip-path="url(#254fe5e45c)"><g clip-path="url(#d846a0a2fb)"><g clip-path="url(#ab98586593)"><path fill="#1ecad3" d="M 10.6875 0.550781 L 10.6875 10.246094 L 0.996094 10.246094 L 0.996094 0.550781 Z M 10.6875 0.550781 " fill-opacity="1" fill-rule="nonzero"/></g></g></g></g></g></g><g clip-path="url(#9abd5d56ac)"><g clip-path="url(#c4b738538a)"><path stroke-linecap="butt" transform="matrix(0, 0.75, -0.75, 0, 123.688868, 142.552008)" fill="none" stroke-linejoin="miter" d="M 6.461906 0.0018245 C 2.894198 0.0018245 -0.00163599 2.89245 -0.00163599 6.460158 C -0.00163599 10.027867 2.894198 12.9237 6.461906 12.9237 C 10.029615 12.9237 12.92024 10.027867 12.92024 6.460158 C 12.92024 2.89245 10.029615 0.0018245 6.461906 0.0018245 Z M 6.461906 0.0018245 " stroke="#1ecad3" stroke-width="2" stroke-opacity="1" stroke-miterlimit="4"/></g></g><g clip-path="url(#50ba139ca7)"><g clip-path="url(#d03d9de2f4)"><g transform="matrix(1, 0, 0, 1, 88, 212)"><g clip-path="url(#c96530df41)"><g clip-path="url(#1f4da84d11)"><g clip-path="url(#9637fb8dcd)"><path fill="#1ecad3" d="M 0.304688 10.558594 L 0.304688 0.863281 L 10 0.863281 L 10 10.558594 Z M 0.304688 10.558594 " fill-opacity="1" fill-rule="nonzero"/></g></g></g></g></g></g><g clip-path="url(#d5d7401661)"><g clip-path="url(#c053343dea)"><path stroke-linecap="butt" transform="matrix(0, -0.75, 0.75, 0, 88.305841, 222.55878)" fill="none" stroke-linejoin="miter" d="M 6.458582 -0.00153814 C 2.890873 -0.00153814 0.000248047 2.894295 0.000248047 6.462004 C 0.000248047 10.029713 2.890873 12.920338 6.458582 12.920338 C 10.031499 12.920338 12.922124 10.029713 12.922124 6.462004 C 12.922124 2.894295 10.031499 -0.00153814 6.458582 -0.00153814 Z M 6.458582 -0.00153814 " stroke="#1ecad3" stroke-width="2" stroke-opacity="1" stroke-miterlimit="4"/></g></g><g clip-path="url(#863b5fe057)"><g clip-path="url(#49e166cb15)"><g transform="matrix(1, 0, 0, 1, 93, 168)"><g clip-path="url(#2f2175c5f4)"><g clip-path="url(#d8c31a9371)"><g clip-path="url(#b6ee7c6c73)"><path fill="#1ecad3" d="M 27.410156 27.984375 L 0.144531 27.984375 L 0.144531 0.722656 L 27.410156 0.722656 Z M 27.410156 27.984375 " fill-opacity="1" fill-rule="nonzero"/></g></g></g></g></g></g><g clip-path="url(#9679d3f7d8)"><g clip-path="url(#82b618e63c)"><path stroke-linecap="butt" transform="matrix(-0.75, 0, 0, -0.75, 120.409751, 195.985125)" fill="none" stroke-linejoin="miter" d="M 18.171336 0.00099964 C 8.134877 0.00099964 -0.000540343 8.136417 -0.000540343 18.172876 C -0.000540343 28.209335 8.134877 36.344752 18.171336 36.344752 C 28.207795 36.344752 36.343212 28.209335 36.343212 18.172876 C 36.343212 8.136417 28.207795 0.00099964 18.171336 0.00099964 Z M 18.171336 0.00099964 " stroke="#1ecad3" stroke-width="2" stroke-opacity="1" stroke-miterlimit="4"/></g></g><path stroke-linecap="butt" transform="matrix(0.75, 0, 0, 0.75, 80.398007, 144.398897)" fill="none" stroke-linejoin="miter" d="M 44.797452 3.999388 L 24.401617 3.999388 C 18.990158 3.999388 13.802658 6.15043 9.974533 9.973346 C 6.151616 13.801472 4.000574 18.988972 4.000574 24.400431 L 4.000574 44.108765 C 4.000574 45.837932 4.682866 47.488974 5.906824 48.707724 C 7.125574 49.926474 8.776616 50.613974 10.500574 50.613974 L 17.005783 50.613974 " stroke="#0b1f3b" stroke-width="8" stroke-opacity="1" stroke-miterlimit="4"/><path stroke-linecap="butt" transform="matrix(0.75, 0, 0, 0.75, 97.999628, 179.359147)" fill="none" stroke-linejoin="miter" d="M 29.885915 4.000304 L 35.885915 4.000304 C 39.198416 4.000304 41.880708 6.682596 41.880708 9.995096 L 41.880708 30.198222 C 41.880708 41.765931 32.505707 51.140932 20.943206 51.140932 L 0.000496447 51.140932 " stroke="#000000" stroke-width="8" stroke-opacity="1" stroke-miterlimit="4"/><g clip-path="url(#561c07e7ca)"><g clip-path="url(#291ffce370)"><g transform="matrix(1, 0, 0, 1, 123, 156)"><g clip-path="url(#e204b1f037)"><g clip-path="url(#9f3a428667)"><g clip-path="url(#89dc79ceac)"><path fill="#1ecad3" d="M 10.382812 0.00390625 L 10.382812 9.699219 L 0.6875 9.699219 L 0.6875 0.00390625 Z M 10.382812 0.00390625 " fill-opacity="1" fill-rule="nonzero"/></g></g></g></g></g></g><g clip-path="url(#a28c88137d)"><g clip-path="url(#f1d5d1dd48)"><path stroke-linecap="butt" transform="matrix(0, 0.75, -0.75, 0, 133.382662, 156.005234)" fill="none" stroke-linejoin="miter" d="M 6.461772 -0.000200478 C 2.894064 -0.000200478 -0.00177001 2.890425 -0.00177001 6.463342 C -0.00177001 10.03105 2.894064 12.921675 6.461772 12.921675 C 10.029481 12.921675 12.920106 10.03105 12.920106 6.463342 C 12.920106 2.890425 10.029481 -0.000200478 6.461772 -0.000200478 Z M 6.461772 -0.000200478 " stroke="#1ecad3" stroke-width="2" stroke-opacity="1" stroke-miterlimit="4"/></g></g><g clip-path="url(#b288d0d37c)"><g clip-path="url(#74a902c3fd)"><g transform="matrix(1, 0, 0, 1, 80, 199)"><g clip-path="url(#75fd68919a)"><g clip-path="url(#6180e0b8f3)"><g clip-path="url(#4bc33716d4)"><path fill="#1ecad3" d="M 9.730469 0.828125 L 9.730469 10.523438 L 0.0351562 10.523438 L 0.0351562 0.828125 Z M 9.730469 0.828125 " fill-opacity="1" fill-rule="nonzero"/></g></g></g></g></g></g><g clip-path="url(#a140f58a41)"><g clip-path="url(#a7695e6f01)"><path stroke-linecap="butt" transform="matrix(0, 0.75, -0.75, 0, 89.729749, 199.828316)" fill="none" stroke-linejoin="miter" d="M 6.463287 -0.000959656 C 2.89037 -0.000959656 -0.000255304 2.894874 -0.000255304 6.462582 C -0.000255304 10.030291 2.89037 12.920916 6.463287 12.920916 C 10.030995 12.920916 12.921621 10.030291 12.921621 6.462582 C 12.921621 2.894874 10.030995 -0.000959656 6.463287 -0.000959656 Z M 6.463287 -0.000959656 " stroke="#1ecad3" stroke-width="2" stroke-opacity="1" stroke-miterlimit="4"/></g></g><g clip-path="url(#0e89282e24)"><g clip-path="url(#ca99304c2a)"><g transform="matrix(1, 0, 0, 1, 120, 208)"><g clip-path="url(#828a2ceef8)"><g clip-path="url(#6cff4cf8ba)"><g clip-path="url(#8104d1d1f1)"><path fill="#1ecad3" d="M 10.105469 0.609375 L 10.105469 10.304688 L 0.414062 10.304688 L 0.414062 0.609375 Z M 10.105469 0.609375 " fill-opacity="1" fill-rule="nonzero"/></g></g></g></g></g></g><g clip-path="url(#c5661f65de)"><g clip-path="url(#833661080a)"><path stroke-linecap="butt" transform="matrix(0, 0.75, -0.75, 0, 130.107037, 208.610305)" fill="none" stroke-linejoin="miter" d="M 6.462302 0.00209068 C 2.894594 0.00209068 -0.0012396 2.892716 -0.0012396 6.460424 C -0.0012396 10.028133 2.894594 12.923967 6.462302 12.923967 C 10.030011 12.923967 12.920636 10.028133 12.920636 6.460424 C 12.920636 2.892716 10.030011 0.00209068 6.462302 0.00209068 Z M 6.462302 0.00209068 " stroke="#1ecad3" stroke-width="2" stroke-opacity="1" stroke-miterlimit="4"/></g></g><path stroke-linecap="butt" transform="matrix(0.529297, -0.531361, 0.531361, 0.529297, 86.180243, 199.123727)" fill="none" stroke-linejoin="miter" d="M -0.00214049 4.000253 L 69.548582 3.999296 " stroke="#0b1f3b" stroke-width="8" stroke-opacity="1" stroke-miterlimit="4"/></svg>